<svg xmlns="http://www.w3.org/2000/svg" xmlns:xlink="http://www.w3.org/1999/xlink" version="1.1" width="79.537" height="79.536" style="" xml:space="preserve"><rect id="backgroundrect" width="100%" height="100%" x="0" y="0" fill="none" stroke="none"/>
















<g class="currentLayer" style=""><title>Layer 1</title><g id="svg_1" class="selected" fill="#ffffff" fill-opacity="1">
	<path style="" d="M77.634,12.821l-9.911-9.958c-1.372-1.385-4.097-0.901-6.069,1.062l-9.088,9.057L40.064,0H1.122   v79.536h61.268V32.987l14.167-14.11C78.514,16.914,79.011,14.198,77.634,12.821z M41.107,10.377l6.887,7.159l-3.77,3.759h-3.117   V10.377z M42.539,48.934l-13.711,5.551l-2.944-2.962l5.601-13.691L42.539,48.934z M55.937,73.089H7.569V6.447h28.702v19.682h3.102   l-3.674,3.656H14.453v3.223H32.47l-2.913,2.895l-2.967,7.263H14.453v3.226h10.822l-4.158,10.154h-6.665v3.221h34.618v-3.221H30.401   l14.045-5.69l4.479-4.464h0.14v-0.14l6.866-6.838v33.676H55.937z" id="svg_2" fill="#ffffff" fill-opacity="1"/>
</g><g id="svg_3">
</g><g id="svg_4">
</g><g id="svg_5">
</g><g id="svg_6">
</g><g id="svg_7">
</g><g id="svg_8">
</g><g id="svg_9">
</g><g id="svg_10">
</g><g id="svg_11">
</g><g id="svg_12">
</g><g id="svg_13">
</g><g id="svg_14">
</g><g id="svg_15">
</g><g id="svg_16">
</g><g id="svg_17">
</g></g></svg>